# xmcd CD database file
#
# Track frame offsets:
#	182
#	18327
#	41850
#	60682
#
# Disc length: 1047 seconds
#
# Revision: 11
# Processed by: cddbd v1.5.2PL0 Copyright (c) Steve Scherf et al.
# Submitted via: CDex 1.51
#
DISCID=2f041504
DTITLE=Norman Brown - Too High
DYEAR=1992
DGENRE=Jazz
TTITLE0=Too High_Single Radio Edit
TTITLE1=Too High_LP Version
TTITLE2=Too High_Boys II Men Mix
TTITLE3=Snippits (a. Just Between Us_b. Stormin'_c. Love's Holiday_d. East Meets West)
EXTD=YEAR: 1992
EXTT0=
EXTT1=
EXTT2=
EXTT3=
PLAYORDER=
